# xmcd
# 
# Track frame offsets:
#     150
#     25355
#     41002
#     62517
#     79905
#     99577
#     124032
#     177452
#     211997
#     223740
# 
# Disc length: 3150
# 
# Revision: 2
# Processed by: cddbd v1.5.2PL0 Copyright (c) Steve Scherf et al.
# Submitted via: fre:ac v1.0.31
# 
DISCID=8e0c4c0a
DTITLE=Canned Heat - Live In Concert Woodstock 10th Anniversary Celabration
DYEAR=2008
DGENRE=Rock/Pop
TTITLE0=On The Road Again
TTITLE1=Bullfrog Blues
TTITLE2=Chicken Shack Boogie
TTITLE3=Stand Up (For What You Are)
TTITLE4=Going Up The Country
TTITLE5=Don't Know Where She Went (She Split)
TTITLE6=Human Condition
TTITLE7=Shake 'n' Boogie
TTITLE8=Christmas Blues (From The Canned Heat Christmas Album)
TTITLE9=Let's Work Together (From The CD Friends In The Can)
EXTD=
EXTT0=
EXTT1=
EXTT2=
EXTT3=
EXTT4=
EXTT5=
EXTT6=
EXTT7=
EXTT8=
EXTT9=
PLAYORDER=
